<?xml version="1.0" encoding="utf-8"?>
<!-- Generator: Adobe Illustrator 23.0.1, SVG Export Plug-In . SVG Version: 6.00 Build 0)  -->
<svg version="1.1" xmlns="http://www.w3.org/2000/svg" xmlns:xlink="http://www.w3.org/1999/xlink" x="0px" y="0px"
	 viewBox="0 0 500 500" style="enable-background:new 0 0 500 500;" xml:space="preserve">
<style type="text/css">
	.st0{fill:url(#SVGID_1_);}
	.st1{fill:#FFFFFF;}
	.st2{fill:url(#SVGID_2_);}
	.st3{fill:url(#SVGID_3_);}
	.st4{fill:url(#SVGID_4_);}
	.st5{fill:url(#SVGID_5_);}
	.st6{fill:url(#SVGID_6_);}
	.st7{fill:none;}
</style>
<g id="BACKGROUND">
	<linearGradient id="SVGID_1_" gradientUnits="userSpaceOnUse" x1="15.617" y1="483" x2="481.617" y2="17">
		<stop  offset="0" style="stop-color:#1B223F"/>
		<stop  offset="0.2402" style="stop-color:#13323E"/>
		<stop  offset="0.7154" style="stop-color:#054B3D"/>
		<stop  offset="1" style="stop-color:#00553D"/>
	</linearGradient>
	<rect x="32.6" class="st0" width="432" height="500"/>
</g>
<g id="OBJECTS">
	<g>
		<path class="st1" d="M311.9,188c8.5,0,16.6,2,23.7,5.5c-9.6-7.4-21.7-11.9-34.8-11.9c-0.4,0-0.7,0-1.1,0l0.3-0.2
			c1.2-0.9,2.3-1.8,3.5-2.6l1.7-1.3c0.6-0.5,1.1-0.9,1.7-1.4c1.1-0.9,2.2-1.9,3.3-2.8c4.3-3.9,8.2-8.2,11.7-12.7
			c3.5-4.6,8.3-15,8.3-15c-2.7,4.9-6.2,9.4-10,13.6c0,0,0,0,0,0c-1.2,1.3-2.4,2.5-3.6,3.7c-5,4.9-10.6,9.2-16.5,12.9
			c-3,1.9-6,3.6-9.2,5.1c-3.3,1.6-6.8,2.7-10.1,4.3c-1.1,0.5-2.2,0.9-3.3,1.4c-0.5,0.2-3.2,1.2-3.3,1.6c0-0.1,0-0.2,0.1-0.3
			c1-5.9,1.5-11.9,1.4-17.9c0-0.1,0-0.2,0-0.2c-0.1-7.1,0.4-13.7,2.7-20.4c2.2-6.5,5.6-12.6,9.6-18c2.5-3.4,5.2-6.7,8.3-9.6
			c0,0-7,5-10,8.2c-2.9,3.2-5.6,6.6-8.1,10.2c-0.6,0.9-1.2,1.8-1.8,2.8l-1.6,2.9c-0.5,1-1,2-1.5,3l-0.4,0.9
			c-0.5-2.2-1.1-4.3-1.8-6.4c-1.1-3.5-2.5-7-4-10.3c-1.5-3.3-5.8-9.3-5.8-9.3c1.5,3.2,2.7,6.7,3.7,10.1c1,3.4,1.8,6.9,2.3,10.4
			c0.6,3.5,0.9,7,1.1,10.5c0.1,3.5,0.1,7-0.2,10.5c-0.5,6.9-2,13.7-4.2,20.1c-1,3-2.3,5.9-3.6,8.8c0-0.5-0.1-1.1-0.1-1.6l-0.1-1.5
			l-0.2-1.5c-0.5-3.9-1.3-7.7-2.3-11.4c-1-3.7-4.6-10.6-4.6-10.6c1,3.6,1.6,7.4,1.9,11.1c0.5,5.7,0.5,11.5-0.3,17.2
			c-0.7,5.3-2.3,10.1-4.1,14.9c-0.1,0.4-0.3,0.7-0.4,1.1c-0.1-0.4-0.3-0.7-0.4-1.1c-1.8-4.8-3.4-9.7-4.1-14.9
			c-0.7-5.7-0.8-11.5-0.3-17.2c0.4-3.7,0.9-7.5,1.9-11.1c0,0-3.5,6.9-4.6,10.6c-1,3.7-1.8,7.5-2.3,11.4l-0.2,1.5l-0.1,1.5
			c0,0.5-0.1,1.1-0.1,1.6c-1.4-2.8-2.6-5.8-3.6-8.8c-2.2-6.4-3.6-13.2-4.2-20.1c-0.3-3.5-0.3-7-0.2-10.5c0.2-3.5,0.5-7,1.1-10.5
			c0.6-3.5,1.3-7,2.3-10.4c1-3.4,2.2-6.8,3.7-10.1c0,0-4.2,6-5.8,9.3c-1.5,3.3-2.9,6.8-4,10.3c-0.7,2.1-1.3,4.2-1.8,6.4l-0.4-0.9
			c-0.5-1-0.9-2-1.5-3l-1.6-2.9c-0.5-1-1.2-1.9-1.8-2.8c-2.4-3.7-5.1-7.1-8.1-10.2c-3-3.2-10-8.2-10-8.2c3.1,2.9,5.8,6.2,8.3,9.6
			c4,5.5,7.4,11.6,9.6,18c2.3,6.7,2.9,13.4,2.7,20.4c0,0.1,0,0.2,0,0.2c-0.1,6,0.4,12,1.4,17.9c0,0.1,0,0.2,0.1,0.3
			c-0.1-0.5-2.8-1.4-3.3-1.6c-1.1-0.5-2.2-1-3.3-1.4c-3.3-1.6-6.8-2.7-10.1-4.3c-3.2-1.5-6.2-3.2-9.2-5.1
			c-5.9-3.7-11.5-8.1-16.5-12.9c-1.2-1.2-2.5-2.4-3.6-3.7c0,0,0,0,0,0c-3.8-4.1-7.3-8.6-10-13.6c0,0,4.8,10.4,8.3,15
			c3.5,4.6,7.5,8.8,11.7,12.7c1.1,1,2.2,1.9,3.3,2.8c0.6,0.5,1.1,1,1.7,1.4l1.7,1.3c1.2,0.9,2.3,1.8,3.5,2.6l0.3,0.2
			c-0.4,0-0.7,0-1.1,0c-13.1,0-25.2,4.4-34.8,11.9c7.2-3.5,15.2-5.5,23.7-5.5c30,0,54.3,24.3,54.3,54.3c0,26-18.3,47.7-42.7,53.1
			c21.8-0.2,40.7-12.7,50-30.9c9.4,18.2,28.2,30.7,50,30.9c-24.4-5.3-42.7-27.1-42.7-53.1C257.6,212.3,281.9,188,311.9,188z"/>
		<g>
			<linearGradient id="SVGID_2_" gradientUnits="userSpaceOnUse" x1="172.7502" y1="66.5029" x2="172.7502" y2="228.927">
				<stop  offset="0" style="stop-color:#60D1BC"/>
				<stop  offset="1" style="stop-color:#4EB4B0"/>
			</linearGradient>
			<path class="st2" d="M151.2,148c-1.3-3.9-1.2-7.8,0.2-11.1c1.3-3.3,3.8-6,6.8-7.5c3.1-1.5,6.7-1.9,10.1-0.9
				c3.4,0.9,6.6,3.2,8.9,6.5c-0.2-1.3-0.7-2.6-1.4-3.8c1.8-1,3.8-1.7,5.9-1.8c2.5-0.2,5.1,0.3,7.5,1.5c2.4,1.2,4.4,3,5.8,5.3
				c1.5,2.3,2.3,5,2.4,7.8c0.3-2.8-0.2-5.7-1.5-8.3c-1.2-2.6-3.2-4.9-5.7-6.6c-2.5-1.7-5.4-2.7-8.5-2.8c-2.8-0.1-5.8,0.5-8.4,1.7
				c-1.1-1-2.4-1.9-3.9-2.6c-2-0.9-4.3-1.4-6.5-1.3c-2.3,0-4.5,0.6-6.6,1.6c-2,1-3.8,2.5-5.2,4.3c-1.4,1.8-2.4,3.9-2.9,6
				c-0.5,2.2-0.5,4.4,0,6.5C148.9,144.6,149.9,146.5,151.2,148z"/>
			<linearGradient id="SVGID_3_" gradientUnits="userSpaceOnUse" x1="167.8422" y1="66.5028" x2="167.8422" y2="228.9272">
				<stop  offset="0" style="stop-color:#60D1BC"/>
				<stop  offset="1" style="stop-color:#4EB4B0"/>
			</linearGradient>
			<path class="st3" d="M193.4,222.6c-2.3,1.5-4.9,2.3-7.5,2.3c-2.6,0.1-5.2-0.5-7.4-1.8c-1.8-1-3.4-2.5-4.6-4.1
				c3.1-1.6,5.9-3.7,8-6.4c-5.4,4.2-12.1,6.3-18.5,5.7c-6.4-0.5-12.4-3.6-16.5-8.3c-4.2-4.7-6.4-11.1-6-17.5
				c0.3-6.4,3.2-12.7,8.1-17.6c-1.9,1.1-3.6,2.5-5.1,4.1c-1.2-1-2.2-2.1-3.1-3.4c-1-1.6-1.6-3.4-2-5.3c-0.3-1.9-0.2-3.9,0.2-5.8
				c0.5-1.9,1.3-3.8,2.5-5.4c-1.5,1.4-2.7,3.2-3.5,5.1c-0.8,1.9-1.3,4.1-1.3,6.3c0,2.2,0.4,4.4,1.2,6.5c0.8,1.9,1.9,3.7,3.3,5.2
				c-2,2.9-3.2,6.4-3.8,10c-0.5,3.6-0.3,7.4,0.8,10.9c1.1,3.5,2.9,6.8,5.3,9.6c2.4,2.8,5.5,5,8.8,6.6c3.4,1.5,7,2.3,10.7,2.3
				c2.3,0,4.6-0.3,6.7-1c1.9,2.4,4.4,4.3,7.1,5.4c2.9,1.2,6,1.5,8.9,1c3-0.4,5.7-1.7,7.9-3.6c2.2-1.8,3.9-4.3,4.8-6.9
				C197.6,219,195.7,221.1,193.4,222.6z"/>
			<linearGradient id="SVGID_4_" gradientUnits="userSpaceOnUse" x1="332.4304" y1="66.5026" x2="332.4304" y2="228.9267">
				<stop  offset="0" style="stop-color:#60D1BC"/>
				<stop  offset="1" style="stop-color:#4EB4B0"/>
			</linearGradient>
			<path class="st4" d="M362.9,192.1c-0.5-3.6-1.8-7.1-3.8-10c-2-3-4.6-5.5-7.6-7.2c4.9,4.8,7.8,11.2,8.1,17.6
				c0.4,6.4-1.8,12.8-6,17.5c-4.1,4.7-10.1,7.8-16.5,8.3c-6.4,0.6-13.1-1.4-18.5-5.7c2.1,2.7,4.8,4.9,8,6.4
				c-1.2,1.7-2.7,3.1-4.6,4.1c-2.2,1.2-4.8,1.9-7.4,1.8c-2.6-0.1-5.2-0.9-7.5-2.3c-2.3-1.5-4.2-3.6-5.4-6.1c0.9,2.6,2.6,5.1,4.8,6.9
				c2.2,1.8,5,3.1,7.9,3.6c2.9,0.5,6.1,0.1,8.9-1c2.8-1.1,5.2-3,7.1-5.4c2.2,0.6,4.4,1,6.7,1c3.6,0,7.3-0.7,10.7-2.3
				c3.4-1.5,6.4-3.8,8.8-6.6c2.4-2.8,4.3-6.1,5.3-9.6C363.2,199.5,363.4,195.8,362.9,192.1z"/>
			<linearGradient id="SVGID_5_" gradientUnits="userSpaceOnUse" x1="250.2726" y1="66.5028" x2="250.2726" y2="228.9267">
				<stop  offset="0" style="stop-color:#60D1BC"/>
				<stop  offset="1" style="stop-color:#4EB4B0"/>
			</linearGradient>
			<path class="st5" d="M306.2,90.2c6,1.9,11.2,6.1,14.3,11.8c3.1,5.6,4,12.5,2.3,19.2c1.7-3,2.5-6.5,2.7-10.1
				c0.1-3.6-0.6-7.2-2-10.5c-1.4-3.3-3.6-6.4-6.4-8.9c-2.7-2.5-6-4.3-9.6-5.4c-3.5-1.1-7.3-1.5-11-1c-3.6,0.5-7.1,1.7-10.2,3.6
				c-0.9-1.4-1.9-2.7-2.9-4c-0.5-0.6-1-1.2-1.5-1.7l-1.6-1.7l-1.7-1.6l-1.7-1.5c-2.4-1.9-4.9-3.6-7.7-4.9
				c-5.5-2.7-11.5-4.3-17.6-4.5c-6.1-0.2-12.3,0.8-17.9,3c-5.6,2.3-10.8,5.7-15,10.1c-1.9,2-3.6,4.1-5.1,6.4
				c-2.9-1.7-6.2-2.9-9.6-3.3c-3.7-0.5-7.4-0.1-11,1c-3.5,1.1-6.8,3-9.6,5.4c-2.7,2.5-4.9,5.5-6.4,8.9c-1.5,3.3-2.2,7-2,10.5
				c0.1,3.6,1,7.1,2.7,10.1c-1.7-6.7-0.9-13.6,2.3-19.2c3-5.7,8.3-9.9,14.3-11.8c5.7-1.8,12.1-1.4,17.7,1.2l2.2,1.2
				c5.1,3,9.1,7.9,11.3,13.7c-0.4-3.4-1.6-6.8-3.5-9.8c-1.6-2.5-3.6-4.6-6-6.4c1.5-2,3.2-3.9,5.1-5.7c8.2-7.7,19.4-11.8,30.5-11.3
				c5.5,0.2,11,1.6,16.1,3.9c5.1,2.3,9.6,5.8,13.4,9.9c1,1.2,2,2.4,2.9,3.6c-2.1,1.7-3.9,3.7-5.3,5.9c-1.9,3-3.2,6.4-3.5,9.8
				c2.1-5.6,5.8-10.2,10.5-13.2l2.4-1.4C293.6,88.8,300.3,88.3,306.2,90.2z"/>
			<linearGradient id="SVGID_6_" gradientUnits="userSpaceOnUse" x1="327.795" y1="66.5029" x2="327.795" y2="228.927">
				<stop  offset="0" style="stop-color:#60D1BC"/>
				<stop  offset="1" style="stop-color:#4EB4B0"/>
			</linearGradient>
			<path class="st6" d="M318.8,126.3c-3.1,0.1-6.1,1.2-8.5,2.8c-2.5,1.6-4.5,4-5.7,6.6c-1.2,2.6-1.7,5.5-1.5,8.3
				c0.1-2.8,0.9-5.5,2.4-7.8c1.4-2.3,3.5-4.1,5.8-5.3c2.3-1.2,4.9-1.7,7.5-1.5c2.1,0.2,4.1,0.8,5.9,1.8c-0.7,1.2-1.2,2.5-1.4,3.8
				c2.3-3.3,5.5-5.6,8.9-6.5c3.4-1,7.1-0.6,10.1,0.9c3.1,1.5,5.6,4.2,6.8,7.5c1.3,3.3,1.4,7.2,0.2,11.1c1.4-1.5,2.4-3.4,2.9-5.5
				c0.5-2.1,0.5-4.3,0-6.5c-0.5-2.2-1.5-4.3-2.9-6c-1.4-1.8-3.2-3.2-5.2-4.3c-2-1-4.3-1.6-6.6-1.6c-2.3,0-4.5,0.4-6.5,1.3
				c-1.4,0.7-2.7,1.5-3.9,2.6C324.5,126.8,321.6,126.2,318.8,126.3z"/>
		</g>
	</g>
	<g>
		<g>
		</g>
	</g>
	<g>
		<path class="st1" d="M82.9,395.2c0.3-2,0.5-4.1,0.8-6c0.3-2,0.5-4.1,0.8-6.4l1.5-12.1c0.3-2.3,0.6-4.4,0.8-6.3s0.5-4,0.8-6.2h2.6
			c1.2,2.9,2.4,5.7,3.5,8.5c1.1,2.7,2.3,5.5,3.4,8.2l6.7,16h0.3l6.7-16c1.1-2.7,2.3-5.5,3.4-8.2c1.1-2.7,2.3-5.6,3.5-8.5h2.6
			c0.3,2.1,0.5,4.2,0.8,6.1s0.5,4.1,0.8,6.3l1.5,12.3c0.3,2.2,0.5,4.3,0.8,6.3c0.2,1.9,0.5,4,0.7,6.1h-2.5
			c-0.5-3.7-0.9-7.1-1.3-10.5c-0.4-3.3-0.8-6.4-1.1-9.3l-1.5-12.3H118l-5.5,13.3c-1.3,3.2-2.7,6.4-4,9.7s-2.6,6.3-3.8,9h-1.8
			c-0.7-1.7-1.5-3.6-2.4-5.7c-0.9-2.1-1.8-4.3-2.7-6.5c-0.9-2.2-1.8-4.4-2.7-6.4l-5.6-13.4h-0.2l-1.5,12.3c-0.3,2.9-0.7,5.9-1.1,9.3
			c-0.4,3.3-0.8,6.8-1.3,10.5H82.9z"/>
		<path class="st1" d="M141.2,379.9l-8.3-13.2c-0.9-1.4-1.7-2.7-2.5-4.1s-1.8-2.8-2.8-4.5h3c1.1,1.8,2.1,3.3,2.9,4.6
			c0.8,1.3,1.5,2.5,2.3,3.6c0.7,1.1,1.5,2.4,2.4,3.8l4.2,6.8h0.4l4.1-6.6c0.9-1.5,1.8-2.8,2.5-4c0.7-1.2,1.5-2.4,2.3-3.7
			c0.8-1.3,1.8-2.8,2.9-4.6h3c-0.9,1.5-1.8,2.9-2.7,4.3c-0.9,1.4-1.8,2.8-2.7,4.2l-8.3,13.3H141.2z M146.7,354c-1,0-1.9-0.2-2.6-0.7
			s-1.4-1-2-1.7c-0.6-0.6-1.2-1.2-1.7-1.7c-0.6-0.5-1.2-0.7-1.9-0.7c-1.1,0-1.9,0.3-2.3,1s-0.6,1.7-0.7,3.1h-1.8
			c0-2,0.4-3.5,1.2-4.6c0.8-1.1,1.9-1.6,3.3-1.6c1,0,1.9,0.2,2.6,0.7s1.4,1,2,1.7c0.6,0.6,1.2,1.2,1.7,1.7c0.6,0.5,1.2,0.7,1.9,0.7
			c1.1,0,1.8-0.3,2.3-1c0.4-0.7,0.6-1.7,0.7-3h1.8c0,2-0.4,3.5-1.2,4.6C149.2,353.4,148.1,354,146.7,354z M141.1,395.2
			c0-2.1,0-4.1,0-6s0-4,0-6.3v-5.1h2.6v5.1c0,2.3,0,4.3,0,6.3s0,3.9,0,6H141.1z"/>
		<path class="st1" d="M174.4,395.2c0-2.1,0-4.1,0-6s0-4,0-6.3v-12.4c0-2.3,0-4.4,0-6.3s0-4,0-6h2.5c2.5,3.4,4.9,6.8,7.2,10
			s4.6,6.4,6.8,9.6l9.2,12.7h0.3v-20c0-2.3,0-4.4,0-6.3s0-4,0-6h2.5c0,2.1,0,4.1,0,6s0,4.1,0,6.3v12.4c0,2.3,0,4.3,0,6.3s0,3.9,0,6
			h-2.4c-2-2.9-4.2-5.9-6.5-9.1c-2.3-3.2-4.8-6.7-7.6-10.6l-9.2-12.8h-0.3v20.2c0,2.3,0,4.3,0,6.3s0,3.9,0,6H174.4z"/>
		<path class="st1" d="M230.8,395.7c-3.2,0-6.1-0.5-8.5-1.5c-2.4-1-4.5-2.3-6.1-4.1c-1.6-1.7-2.9-3.8-3.7-6.1
			c-0.8-2.3-1.2-4.8-1.2-7.5c0-3.7,0.8-7,2.3-9.9c1.5-2.9,3.7-5.1,6.4-6.8c2.7-1.6,5.9-2.4,9.6-2.4c1.3,0,2.6,0.1,3.8,0.3
			c1.2,0.2,2.4,0.4,3.4,0.8c1.1,0.3,2.1,0.6,2.9,1c0.9,0.4,1.6,0.7,2.3,1.1l-0.3,2.7c-1.4-0.8-2.8-1.4-4.1-1.9
			c-1.4-0.5-2.7-0.8-4-1.1c-1.3-0.2-2.6-0.3-3.9-0.3c-2.3,0-4.4,0.4-6.4,1.2c-1.9,0.8-3.6,1.9-5,3.3c-1.4,1.4-2.5,3.2-3.2,5.2
			c-0.8,2-1.1,4.3-1.1,6.9c0,2.4,0.3,4.5,1,6.6c0.7,2,1.7,3.8,3.1,5.3s3.1,2.7,5.3,3.6c2.2,0.8,4.7,1.3,7.7,1.3c0.9,0,1.9,0,2.8-0.1
			c1-0.1,1.9-0.2,2.9-0.5c1-0.2,1.9-0.5,2.9-0.8s1.8-0.7,2.7-1.2l0.3,2.7c-0.6,0.3-1.3,0.6-2.2,0.8c-0.9,0.3-1.8,0.5-2.8,0.8
			c-1,0.2-2.1,0.4-3.2,0.5C233.2,395.6,232,395.7,230.8,395.7z M240,393.4c0-1.8,0-3.3,0-4.7c0-1.3,0-2.6,0-4c0-1.6,0-3,0-4.2
			c0-1.2,0-2.4,0-3.7h2.5c0,1.2,0,2.5,0,3.7c0,1.2,0,2.6,0,4.2c0,1.3,0,2.6,0,4c0,1.3,0,2.9,0,4.6L240,393.4z"/>
		<path class="st1" d="M251.9,395.2c0-2.1,0-4.1,0-6s0-4,0-6.3v-12.4c0-2.3,0-4.4,0-6.3s0-4,0-6h2.6c0,2.1,0,4.1,0,6s0,4.1,0,6.3
			v12.4c0,2.3,0,4.3,0,6.3s0,3.9,0,6H251.9z M253.3,377.5v-2.3h25.6v2.3H253.3z M277.4,395.2c0-2.1,0-4.1,0-6s0-4,0-6.3v-12.4
			c0-2.3,0-4.4,0-6.3s0-4,0-6h2.6c0,2.1,0,4.1,0,6s0,4.1,0,6.3v12.4c0,2.3,0,4.3,0,6.3s0,3.9,0,6H277.4z"/>
		<path class="st1" d="M290.8,395.2c0-2.1,0-4.1,0-6s0-4,0-6.3v-12.3c0-2.3,0-4.4,0-6.3s0-4,0-6H313v2.4c-1.8,0-3.7,0-5.8,0
			s-4.5,0-7.3,0H292l1.4-2.1c0,2.1,0,4.1,0,6.1s0,4,0,6.3v11.7c0,2.3,0,4.3,0,6.3s0,3.9,0,6l-1.3-2h8c2.4,0,4.6,0,6.7,0
			c2.1,0,4.2,0,6.1,0v2.4H290.8z M292.9,377.5v-2.3h7.4c2.5,0,4.6,0,6.4,0s3.5,0,5.2,0v2.3c-1.8,0-3.5,0-5.3,0c-1.8,0-3.9,0-6.3,0
			H292.9z M308.5,354c-1.2-1.4-2.3-2.7-3.5-4s-2.3-2.7-3.5-4.1h0.9c-1.2,1.4-2.4,2.7-3.5,4c-1.1,1.3-2.3,2.6-3.5,4h-2.3
			c1.2-1.5,2.4-3,3.7-4.5c1.2-1.5,2.5-3,3.7-4.6h2.9c1.2,1.5,2.5,3.1,3.7,4.6s2.5,3.1,3.7,4.6L308.5,354z M301.9,405.9
			c-0.7,0-1.2-0.2-1.6-0.6c-0.4-0.4-0.6-1.1-0.6-1.9c0-0.9,0.2-1.5,0.6-1.9s1-0.6,1.7-0.6c0.7,0,1.3,0.2,1.7,0.7
			c0.4,0.4,0.6,1.1,0.6,1.9s-0.2,1.5-0.6,1.9C303.2,405.7,302.6,405.9,301.9,405.9z"/>
		<path class="st1" d="M331.6,395.2c0-2.1,0-4.1,0-6s0-4,0-6.3v-12.4c0-2.3,0-4.4,0-6.3s0-4,0-6h2.6c0,2.1,0,4.1,0,6s0,4.1,0,6.3
			v12.4c0,2.3,0,4.3,0,6.3s0,3.9,0,6H331.6z M333,377.5v-2.3h25.6v2.3H333z M357.1,395.2c0-2.1,0-4.1,0-6s0-4,0-6.3v-12.4
			c0-2.3,0-4.4,0-6.3s0-4,0-6h2.6c0,2.1,0,4.1,0,6s0,4.1,0,6.3v12.4c0,2.3,0,4.3,0,6.3s0,3.9,0,6H357.1z"/>
		<path class="st1" d="M368.6,380.9v-2.3c1.4,0,2.7,0,3.9,0s2.4,0,3.5,0s2.3,0,3.5,0c1.3,0,2.6,0,3.9,0v2.3c-1.4,0-2.7,0-3.9,0
			c-1.3,0-2.4,0-3.5,0s-2.3,0-3.5,0S370,380.9,368.6,380.9z"/>
		<path class="st1" d="M387.7,395.2c0.8-2,1.6-4.1,2.4-6.3c0.8-2.2,1.6-4.3,2.4-6.3l4.8-12.7c0.9-2.3,1.7-4.3,2.4-6.2
			c0.7-1.9,1.4-3.7,2.1-5.6h3.6c0.7,1.9,1.4,3.8,2.1,5.6c0.7,1.8,1.5,3.9,2.3,6.2l4.8,12.8c0.8,2,1.6,4.1,2.4,6.3
			c0.8,2.2,1.6,4.2,2.3,6.2h-2.7c-0.8-2.3-1.7-4.6-2.6-7c-0.9-2.4-1.7-4.7-2.5-6.8l-7.7-20.6h-0.4l-7.7,20.4c-0.8,2.2-1.7,4.6-2.6,7
			c-0.9,2.4-1.8,4.8-2.7,7.1H387.7z M393.5,385l0.1-2.2h20l0.1,2.2H393.5z"/>
	</g>
	<g>
		<rect x="16.5" y="-73.9" class="st7" width="210.6" height="10.7"/>
	</g>
	<g>
	</g>
	<g>
	</g>
	<g>
	</g>
	<g>
	</g>
	<g>
	</g>
	<g>
	</g>
</g>
</svg>
