<?xml version="1.0" encoding="utf-8"?>
<!-- Generator: Adobe Illustrator 23.0.1, SVG Export Plug-In . SVG Version: 6.00 Build 0)  -->
<svg version="1.1" id="Calque_1" xmlns="http://www.w3.org/2000/svg" xmlns:xlink="http://www.w3.org/1999/xlink" x="0px" y="0px"
	 viewBox="0 0 384 384" style="enable-background:new 0 0 384 384;" xml:space="preserve">
<style type="text/css">
	.st0{fill:#00553D;}
	.st1{fill:#FFFFFF;}
</style>
<path class="st0" d="M369,384H15c-8.3,0-15-6.7-15-15V15C0,6.7,6.7,0,15,0h354c8.3,0,15,6.7,15,15v354C384,377.3,377.3,384,369,384z
	"/>
<path class="st1" d="M283.4,200.3H100.6c-4.6,0-8.3-3.7-8.3-8.3c0-4.6,3.7-8.3,8.3-8.3h182.8c4.6,0,8.3,3.7,8.3,8.3
	C291.7,196.6,288,200.3,283.4,200.3z"/>
<path class="st1" d="M283.4,136.6H100.6c-4.6,0-8.3-3.7-8.3-8.3c0-4.6,3.7-8.3,8.3-8.3h182.8c4.6,0,8.3,3.7,8.3,8.3
	C291.7,132.9,288,136.6,283.4,136.6z"/>
<path class="st1" d="M283.4,264H100.6c-4.6,0-8.3-3.7-8.3-8.3s3.7-8.3,8.3-8.3h182.8c4.6,0,8.3,3.7,8.3,8.3S288,264,283.4,264z"/>
</svg>
